<svg width="27" height="25" viewBox="0 0 27 25" fill="none" xmlns="http://www.w3.org/2000/svg">
<g opacity="0.85">
<path d="M12.2259 1.09673C13.3461 0.383871 14.5102 0.927916 15.594 1.43446C15.8123 1.53646 16.0273 1.63694 16.238 1.72533C17.6523 2.40903 19.0926 3.03883 20.5329 3.66864C22.7187 4.62439 24.9046 5.5802 27 6.72455V8.03236C25.1421 9.23774 23.1036 10.0997 21.0644 10.962C19.8205 11.4879 18.5764 12.014 17.3728 12.6181C16.9656 12.7731 16.5504 12.9795 16.1294 13.1888C14.7623 13.8684 13.3339 14.5784 11.918 13.656C10.4045 12.9154 8.85502 12.244 7.3055 11.5726C4.82073 10.4959 2.33595 9.41922 0 8.05767V6.81736C2.41796 5.42258 4.98363 4.31187 7.549 3.20128C9.11941 2.52143 10.6897 1.84162 12.2259 1.09673ZM0.84375 7.27298C0.852188 7.31728 0.865899 7.38267 0.87961 7.44806C0.893321 7.51345 0.907031 7.57884 0.915469 7.62314C3.42963 8.86353 5.99695 9.99918 8.56412 11.1348C10.2142 11.8647 11.8642 12.5946 13.5 13.3522C15.2029 12.5557 16.9253 11.799 18.6477 11.0423C21.1583 9.9394 23.6687 8.83653 26.1183 7.61048V7.26454C23.4517 5.93669 20.7219 4.73345 17.9924 3.53029C16.4899 2.86803 14.9875 2.2058 13.4958 1.52283C11.6473 2.394 9.77672 3.21917 7.90602 4.04438C5.53708 5.08937 3.16802 6.13442 0.84375 7.27298Z" fill="#6A6F7B"/>
<path d="M12.2259 1.09673C13.3461 0.383871 14.5102 0.927916 15.594 1.43446C15.8123 1.53646 16.0273 1.63694 16.238 1.72533C17.6523 2.40903 19.0926 3.03883 20.5329 3.66864C22.7187 4.62439 24.9046 5.5802 27 6.72455V8.03236C25.1421 9.23774 23.1036 10.0997 21.0644 10.962C19.8205 11.4879 18.5764 12.014 17.3728 12.6181C16.9656 12.7731 16.5504 12.9795 16.1294 13.1888C14.7623 13.8684 13.3339 14.5784 11.918 13.656C10.4045 12.9154 8.85502 12.244 7.3055 11.5726C4.82073 10.4959 2.33595 9.41922 0 8.05767V6.81736C2.41796 5.42258 4.98363 4.31187 7.549 3.20128C9.11941 2.52143 10.6897 1.84162 12.2259 1.09673ZM0.84375 7.27298C0.852188 7.31728 0.865899 7.38267 0.87961 7.44806C0.893321 7.51345 0.907031 7.57884 0.915469 7.62314C3.42963 8.86353 5.99695 9.99918 8.56412 11.1348C10.2142 11.8647 11.8642 12.5946 13.5 13.3522C15.2029 12.5557 16.9253 11.799 18.6477 11.0423C21.1583 9.9394 23.6687 8.83653 26.1183 7.61048V7.26454C23.4517 5.93669 20.7219 4.73345 17.9924 3.53029C16.4899 2.86803 14.9875 2.2058 13.4958 1.52283C11.6473 2.394 9.77672 3.21917 7.90602 4.04438C5.53708 5.08937 3.16802 6.13442 0.84375 7.27298Z" stroke="#6A6F7B"/>
</g>
<g opacity="0.85">
<path d="M0 11.8883C1.18547 10.9433 2.62828 10.3696 4.14703 10.2683C3.4265 10.9794 2.54973 11.4608 1.67454 11.9413C1.38139 12.1023 1.08842 12.2632 0.801562 12.4325C1.20087 12.9041 1.76589 13.1623 2.32015 13.4155C2.44518 13.4726 2.56966 13.5295 2.69156 13.5885C5.10751 14.6319 7.50471 15.7129 9.90191 16.7938C11.1005 17.3343 12.2991 17.8747 13.5 18.4105C15.1584 17.6325 16.8375 16.8978 18.5166 16.1632C21.1258 15.0215 23.7349 13.88 26.2659 12.576C25.8563 12.288 25.4253 12.0304 24.9943 11.7728C24.2446 11.3246 23.4947 10.8764 22.8572 10.2683C24.3633 10.3611 25.7386 11.0024 27 11.7871V13.0949C25.1302 14.302 23.0816 15.1697 21.0332 16.0374C19.7957 16.5617 18.5582 17.0859 17.3602 17.6849C16.9547 17.8393 16.541 18.0452 16.1213 18.2542C14.7638 18.9299 13.3441 19.6366 11.9391 18.7311C10.4243 17.9899 8.87343 17.3176 7.3228 16.6454C4.83132 15.5653 2.34033 14.4854 0 13.1202V11.8883Z" fill="#4B50BE"/>
<path d="M0 11.8883C1.18547 10.9433 2.62828 10.3696 4.14703 10.2683C3.4265 10.9794 2.54973 11.4608 1.67454 11.9413C1.38139 12.1023 1.08842 12.2632 0.801562 12.4325C1.20087 12.9041 1.76589 13.1623 2.32015 13.4155C2.44518 13.4726 2.56966 13.5295 2.69156 13.5885C5.10751 14.6319 7.50471 15.7129 9.90191 16.7938C11.1005 17.3343 12.2991 17.8747 13.5 18.4105C15.1584 17.6325 16.8375 16.8978 18.5166 16.1632C21.1258 15.0215 23.7349 13.88 26.2659 12.576C25.8563 12.288 25.4253 12.0304 24.9943 11.7728C24.2446 11.3246 23.4947 10.8764 22.8572 10.2683C24.3633 10.3611 25.7386 11.0024 27 11.7871V13.0949C25.1302 14.302 23.0816 15.1697 21.0332 16.0374C19.7957 16.5617 18.5582 17.0859 17.3602 17.6849C16.9547 17.8393 16.541 18.0452 16.1213 18.2542C14.7638 18.9299 13.3441 19.6366 11.9391 18.7311C10.4243 17.9899 8.87343 17.3176 7.3228 16.6454C4.83132 15.5653 2.34033 14.4854 0 13.1202V11.8883Z" stroke="#6A6F7B"/>
</g>
<g opacity="0.85">
<path d="M0 16.9508C1.18547 16.0058 2.62828 15.4363 4.14281 15.3308C3.38711 16.0702 2.46792 16.5758 1.55032 17.0804C1.27949 17.2293 1.00881 17.3782 0.7425 17.533C1.78167 18.2896 2.96103 18.7869 4.13974 19.2839C4.54493 19.4548 4.95005 19.6256 5.34938 19.8069C5.51484 19.8809 5.68033 19.9549 5.84582 20.0289C8.39767 21.17 10.9526 22.3124 13.5 23.4772C15.0336 22.7682 16.5815 22.0883 18.1295 21.4084C20.8737 20.203 23.6179 18.9976 26.2828 17.63C25.9242 17.3949 25.5553 17.1752 25.1866 16.9558C24.3714 16.4704 23.5573 15.9857 22.8572 15.335C24.3633 15.4194 25.7386 16.0649 27 16.8496V18.1574C25.2212 19.3262 23.2645 20.1562 21.3074 20.9863C20.1917 21.4595 19.076 21.9328 17.993 22.4689C17.5292 22.6634 17.0729 22.8811 16.6162 23.099C15.6064 23.5808 14.5952 24.0633 13.5 24.2957C11.7429 23.7685 10.0807 22.9787 8.41854 22.1888C7.36696 21.6891 6.31536 21.1893 5.23969 20.7561C4.77116 20.5403 4.29611 20.3361 3.82091 20.1317C2.50326 19.5652 1.18441 18.9981 0 18.1827V16.9508Z" fill="#6A6F7B"/>
<path d="M0 16.9508C1.18547 16.0058 2.62828 15.4363 4.14281 15.3308C3.38711 16.0702 2.46792 16.5758 1.55032 17.0804C1.27949 17.2293 1.00881 17.3782 0.7425 17.533C1.78167 18.2896 2.96103 18.7869 4.13974 19.2839C4.54493 19.4548 4.95005 19.6256 5.34938 19.8069C5.51484 19.8809 5.68033 19.9549 5.84582 20.0289C8.39767 21.17 10.9526 22.3124 13.5 23.4772C15.0336 22.7682 16.5815 22.0883 18.1295 21.4084C20.8737 20.203 23.6179 18.9976 26.2828 17.63C25.9242 17.3949 25.5553 17.1752 25.1866 16.9558C24.3714 16.4704 23.5573 15.9857 22.8572 15.335C24.3633 15.4194 25.7386 16.0649 27 16.8496V18.1574C25.2212 19.3262 23.2645 20.1562 21.3074 20.9863C20.1917 21.4595 19.076 21.9328 17.993 22.4689C17.5292 22.6634 17.0729 22.8811 16.6162 23.099C15.6064 23.5808 14.5952 24.0633 13.5 24.2957C11.7429 23.7685 10.0807 22.9787 8.41854 22.1888C7.36696 21.6891 6.31536 21.1893 5.23969 20.7561C4.77116 20.5403 4.29611 20.3361 3.82091 20.1317C2.50326 19.5652 1.18441 18.9981 0 18.1827V16.9508Z" stroke="#6A6F7B"/>
</g>
</svg>
