<svg width="20" height="20" viewBox="0 0 20 20" fill="none" xmlns="http://www.w3.org/2000/svg">
<path d="M1.46329 0.445021C7.15079 0.109187 12.8925 0.0766875 18.5691 0.455854C18.8075 0.694188 19.3058 1.18169 19.5441 1.42002C19.9125 7.10752 19.9016 12.8492 19.555 18.5367C19.3058 18.7859 18.8075 19.295 18.5691 19.555C12.8925 19.9017 7.15079 19.9017 1.47413 19.555C1.22496 19.3167 0.704959 18.8184 0.444959 18.58C0.0982927 12.8709 0.0874593 7.10752 0.455793 1.40919C0.704959 1.17085 1.21413 0.683354 1.46329 0.445021ZM2.41663 2.41669C2.41663 7.47585 2.41663 12.5242 2.41663 17.5834C7.47579 17.5834 12.5241 17.5834 17.5833 17.5834C17.5833 12.5242 17.5833 7.47585 17.5833 2.41669C12.5241 2.41669 7.47579 2.41669 2.41663 2.41669Z" fill="white"/>
</svg>
