<svg width="18" height="18" viewBox="0 0 18 18" fill="none" xmlns="http://www.w3.org/2000/svg">
<path d="M8.96256 0.5875C8.94537 0.590625 8.92818 0.595313 8.91256 0.6C8.72662 0.642188 8.59537 0.809376 8.60006 1V3.4C8.5985 3.54375 8.6735 3.67813 8.7985 3.75156C8.9235 3.82344 9.07662 3.82344 9.20162 3.75156C9.32662 3.67813 9.40162 3.54375 9.40006 3.4V1C9.40475 0.884376 9.35787 0.773438 9.27506 0.695313C9.19068 0.615625 9.07662 0.576563 8.96256 0.5875ZM3.26256 2.9375C3.11256 2.96406 2.99225 3.07344 2.95006 3.21875C2.90787 3.36563 2.95162 3.52188 3.06256 3.625L4.76256 5.325C4.85943 5.44375 5.01412 5.49844 5.16412 5.46406C5.31256 5.42969 5.42975 5.3125 5.46412 5.16406C5.4985 5.01406 5.44381 4.85938 5.32506 4.7625L3.62506 3.0625C3.54225 2.97344 3.42193 2.92813 3.30006 2.9375C3.28756 2.9375 3.27506 2.9375 3.26256 2.9375ZM14.6126 2.9375C14.5219 2.95 14.4376 2.99531 14.3751 3.0625L12.6751 4.7625C12.5563 4.85938 12.5016 5.01406 12.536 5.16406C12.5704 5.3125 12.6876 5.42969 12.836 5.46406C12.986 5.49844 13.1407 5.44375 13.2376 5.325L14.9376 3.625C15.0626 3.50625 15.0985 3.32031 15.0251 3.16406C14.9501 3.00625 14.7844 2.91563 14.6126 2.9375ZM8.96256 5C8.95006 5.00313 8.93756 5.00781 8.92506 5.0125C8.90006 5.01406 8.87506 5.01875 8.85006 5.025C8.84537 5.02969 8.84225 5.03281 8.83756 5.0375C6.71568 5.12813 5.00006 6.85625 5.00006 9C5.00006 11.2016 6.7985 13 9.00006 13C11.2016 13 13.0001 11.2016 13.0001 9C13.0001 6.86406 11.2985 5.14219 9.18756 5.0375C9.1735 5.0375 9.16412 5.025 9.15006 5.025C9.10943 5.00938 9.06725 5.00156 9.02506 5C9.01725 5 9.00787 5 9.00006 5C8.98756 5 8.97506 5 8.96256 5ZM8.97506 5.8C8.98287 5.8 8.99225 5.8 9.00006 5.8C9.01256 5.8 9.02506 5.8 9.03756 5.8C10.7876 5.82031 12.2001 7.24531 12.2001 9C12.2001 10.7688 10.7688 12.2 9.00006 12.2C7.23287 12.2 5.80006 10.7688 5.80006 9C5.80006 7.24063 7.21881 5.81406 8.97506 5.8ZM0.887558 8.6C0.667246 8.63125 0.512558 8.83594 0.543808 9.05625C0.575058 9.27656 0.779746 9.43125 1.00006 9.4H3.40006C3.54381 9.40156 3.67818 9.32656 3.75162 9.20156C3.8235 9.07656 3.8235 8.92344 3.75162 8.79844C3.67818 8.67344 3.54381 8.59844 3.40006 8.6H1.00006C0.987558 8.6 0.975058 8.6 0.962558 8.6C0.950058 8.6 0.937558 8.6 0.925058 8.6C0.912558 8.6 0.900058 8.6 0.887558 8.6ZM14.4876 8.6C14.2672 8.63125 14.1126 8.83594 14.1438 9.05625C14.1751 9.27656 14.3797 9.43125 14.6001 9.4H17.0001C17.1438 9.40156 17.2782 9.32656 17.3516 9.20156C17.4235 9.07656 17.4235 8.92344 17.3516 8.79844C17.2782 8.67344 17.1438 8.59844 17.0001 8.6H14.6001C14.5876 8.6 14.5751 8.6 14.5626 8.6C14.5501 8.6 14.5376 8.6 14.5251 8.6C14.5126 8.6 14.5001 8.6 14.4876 8.6ZM5.00006 12.55C4.90943 12.5625 4.82506 12.6078 4.76256 12.675L3.06256 14.375C2.94381 14.4719 2.88912 14.6266 2.9235 14.7766C2.95787 14.925 3.07506 15.0422 3.2235 15.0766C3.3735 15.1109 3.52818 15.0563 3.62506 14.9375L5.32506 13.2375C5.44381 13.1234 5.47975 12.9469 5.41568 12.7953C5.35318 12.6438 5.20162 12.5469 5.03756 12.55C5.02506 12.55 5.01256 12.55 5.00006 12.55ZM12.8751 12.55C12.7251 12.5766 12.6047 12.6859 12.5626 12.8313C12.5204 12.9781 12.5641 13.1344 12.6751 13.2375L14.3751 14.9375C14.4719 15.0563 14.6266 15.1109 14.7766 15.0766C14.9251 15.0422 15.0422 14.925 15.0766 14.7766C15.111 14.6266 15.0563 14.4719 14.9376 14.375L13.2376 12.675C13.1626 12.5953 13.0594 12.5516 12.9501 12.55C12.9376 12.55 12.9251 12.55 12.9126 12.55C12.9001 12.55 12.8876 12.55 12.8751 12.55ZM8.96256 14.1875C8.94537 14.1906 8.92818 14.1953 8.91256 14.2C8.72662 14.2422 8.59537 14.4094 8.60006 14.6V17C8.5985 17.1438 8.6735 17.2781 8.7985 17.3516C8.9235 17.4234 9.07662 17.4234 9.20162 17.3516C9.32662 17.2781 9.40162 17.1438 9.40006 17V14.6C9.40475 14.4844 9.35787 14.3734 9.27506 14.2953C9.19068 14.2156 9.07662 14.1766 8.96256 14.1875Z" fill="white"/>
</svg>
